# xmcd
#
# Track frame offsets: 
#        150
#        11117
#        28772
#        38414
#        53068
#        69345
#        86168
#        94810
#        114292
#        125070
#        140629
#        152508
#        164113
#        178838
#        191825
#        209063
#        218655
#        233072
#        242031
#        258006
#
# Disc length: 3728 seconds
#
# Revision: 0
# Processed by: cddbd v1.5.2PL0 Copyright (c) Steve Scherf et al.
# Submitted via: ExactAudioCopy v1.0b1
#
DISCID=1e0e8e14
DTITLE=Doyle Lawson and Quicksilver - Burden Bearer
DYEAR=2016
DGENRE=Bluegrass
TTITLE0=Burden Bearer
TTITLE1=Best Friends
TTITLE2=Brother Have You Heard
TTITLE3=He'll Care For You
TTITLE4=No Storms That We Must Fear
TTITLE5=You Were Right
TTITLE6=Rejoicing All the Way
TTITLE7=The Touch of His Gentle Hand
TTITLE8=Another Day
TTITLE9=He's Everywhere
TTITLE10=Get Right With God
TTITLE11=Passed All Sorrow
TTITLE12=God Gave Noah the Rainbow Sign
TTITLE13=By the Marks In His Hands
TTITLE14=The Cross In the Garden
TTITLE15=Sailing On the Waves of Glory
TTITLE16=Wonderful Day
TTITLE17=Wrastlin' Jacob
TTITLE18=Songs I Heard My Mama Sing
TTITLE19=How Great Thou Art
EXTD=
EXTT0=
EXTT1=
EXTT2=
EXTT3=
EXTT4=
EXTT5=
EXTT6=
EXTT7=
EXTT8=
EXTT9=
EXTT10=
EXTT11=
EXTT12=
EXTT13=
EXTT14=
EXTT15=
EXTT16=
EXTT17=
EXTT18=
EXTT19=
PLAYORDER=
